# xmcd
#
# Track frame offsets: 
#        150
#        21970
#        37310
#        52129
#        69392
#        93641
#        106387
#        121392
#        137736
#        154334
#        164722
#        177022
#        186247
#        197003
#        223822
#        238325
#        249880
#        266505
#        283882
#        308089
#        330478
#
# Disc length: 4710 seconds
#
# Revision: 0
# Processed by: cddbd v1.5.2PL0 Copyright (c) Steve Scherf et al.
# Submitted via: ExactAudioCopy v1.1
#
DISCID=47126415
DTITLE=Various Artist - 1969 - Woodstock Generation - CD 1
DYEAR=2019
DGENRE=Oldies
TTITLE0=John Lennon and The Plastic Ono Band - Give Peace A Chance
TTITLE1=Leonard Cohen - The Partisan
TTITLE2=Bob Dylan - Lay Lady Lay
TTITLE3=Janis Joplin and Kozmic Blues Band - Try (Just A Little Bit Hard
TTITLE3=er)
TTITLE4=Sly and The Family Stone - I Want To Take You Higher
TTITLE5=Canned Heat - Going Up The Country
TTITLE6=Jethro Tull - Living In The Past
TTITLE7=The Kinks - Victoria
TTITLE8=Johnny Cash - A Boy Named Sue
TTITLE9=Jefferson Airplane - Volunteers
TTITLE10=Sha Na Na - Rock 'N' Roll Is Here To Stay
TTITLE11=The Byrds - Ballad Of The Easy Rider
TTITLE12=The Lovin' Spoonful - Revelation - Revolution '69
TTITLE13=James Brown - I Don't Want Nobody To Give Me Nothing (Open Up
TTITLE13=The Door I'll Get It Myself)
TTITLE14=Booker T. and The M.G.'s - Time Is Tight
TTITLE15=The Temptations - Get Ready
TTITLE16=Tony Joe White - Polk Salad Annie
TTITLE17=Tim Hardin - Simple Song Of Freedom
TTITLE18=B.B. King - The Thrill Is Gone
TTITLE19=Donovan - Atlantis
TTITLE20=Joe Cocker - With A Little Help From My Friends
EXTD=
EXTT0=
EXTT1=
EXTT2=
EXTT3=
EXTT4=
EXTT5=
EXTT6=
EXTT7=
EXTT8=
EXTT9=
EXTT10=
EXTT11=
EXTT12=
EXTT13=
EXTT14=
EXTT15=
EXTT16=
EXTT17=
EXTT18=
EXTT19=
EXTT20=
PLAYORDER=
